<svg width="271" height="181" viewBox="0 0 271 181" fill="none" xmlns="http://www.w3.org/2000/svg">
<g clip-path="url(#clip0_23_205)">
<path d="M105.38 40.9754C134.093 39.347 164.197 47.829 159.773 60.1249C155.347 72.4208 183.431 55.7577 194.637 60.191C202.616 63.347 199.427 72.9548 203.286 76.8264C212.137 85.7026 221.189 74.525 232.452 81.2319C243.716 87.9386 220.655 150.534 208.888 150.884L74.6722 150.086L65.0406 149.241C65.0406 149.241 38.398 135.002 57.4565 121.867C70.3432 112.985 61.0711 106.536 59.6694 102.47C58.0602 97.8015 54.3057 89.6481 70.6654 83.6648C87.0253 77.6816 82.8013 64.6623 82.3988 61.9669C81.9968 59.2703 76.6674 42.6038 105.38 40.9754Z" fill="url(#paint0_linear_23_205)"/>
<path d="M148.147 155.66C204.023 155.66 249.32 154.039 249.32 152.04C249.32 150.041 204.023 148.42 148.147 148.42C92.2701 148.42 46.9733 150.041 46.9733 152.04C46.9733 154.039 92.2701 155.66 148.147 155.66Z" fill="url(#paint1_linear_23_205)"/>
<path d="M57.5742 127.882C57.5742 127.882 63.1647 117.528 77.8035 107.428C88.1382 100.296 93.1556 81.8911 93.1556 81.8911C93.1556 81.8911 72.5464 84.2709 64.4513 97.5195C56.3563 110.768 57.5742 127.882 57.5742 127.882Z" fill="#3F573F"/>
<path d="M57.5234 128.152C57.6631 128.142 57.7808 128.04 57.8025 127.905C59.9347 116.702 65.7247 108.275 70.2125 103.173C75.0766 97.6526 79.4789 94.7475 79.5238 94.721C79.6653 94.6247 79.7065 94.4341 79.6105 94.2923C79.5881 94.2583 79.5593 94.2291 79.5257 94.2064C79.492 94.1836 79.4542 94.1677 79.4144 94.1596C79.3746 94.1516 79.3336 94.1515 79.2938 94.1593C79.254 94.1672 79.2161 94.1828 79.1823 94.2054C79.1374 94.2319 74.6605 97.1813 69.7461 102.768C65.2071 107.921 59.346 116.447 57.1924 127.784C57.1843 127.824 57.1842 127.865 57.1922 127.904C57.2001 127.944 57.216 127.982 57.2388 128.015C57.2616 128.049 57.2908 128.077 57.3248 128.099C57.3588 128.121 57.3968 128.135 57.4366 128.142C57.4761 128.147 57.4999 128.153 57.5234 128.152Z" fill="#232923"/>
<path d="M60.2707 127.463C60.2707 127.463 61.8094 123.729 69.9644 124.054C78.1188 124.372 82.932 128.559 96.741 119.426C96.741 119.426 85.3123 111.188 73.7596 113.829C62.1984 116.462 61.6173 121.027 60.2707 127.463Z" fill="#3F573F"/>
<path d="M60.2535 127.769C60.3544 127.762 60.4517 127.7 60.5071 127.602C60.542 127.545 63.7504 121.587 69.4965 120.112C79.5379 117.533 86.6869 120.293 86.7595 120.327C86.8362 120.356 86.9212 120.354 86.9963 120.321C87.0713 120.288 87.1304 120.226 87.1608 120.15C87.1894 120.074 87.1878 119.99 87.1563 119.915C87.1248 119.84 87.0659 119.78 86.9916 119.747C86.9193 119.721 79.5852 116.88 69.3444 119.513C63.3297 121.054 60.1015 127.06 59.9633 127.312C59.8805 127.467 59.9404 127.651 60.0946 127.734C60.1358 127.762 60.199 127.773 60.2535 127.769Z" fill="#232923"/>
<path d="M56.6724 126.843C56.6724 126.843 57.0976 122.83 49.7785 119.213C42.4594 115.595 36.2378 116.971 28.4556 102.345C28.4556 102.345 42.4214 100.572 51.3226 108.42C60.2228 116.252 58.5516 120.542 56.6724 126.843Z" fill="#3F573F"/>
<path d="M56.7345 127.168C56.8898 127.156 57.0211 127.022 57.0178 126.866C57.0205 126.576 57.0353 119.758 52.4924 115.528C44.746 108.318 36.9484 107.31 36.8774 107.299C36.7971 107.29 36.7164 107.313 36.6528 107.363C36.5891 107.413 36.5476 107.486 36.5371 107.566C36.5281 107.647 36.5509 107.728 36.6008 107.792C36.6506 107.855 36.7235 107.897 36.8036 107.907C36.8825 107.917 44.4831 108.908 52.0793 115.98C56.4294 120.029 56.4108 126.792 56.408 126.862C56.4071 126.903 56.4143 126.943 56.4291 126.981C56.4439 127.019 56.4661 127.054 56.4943 127.083C56.5226 127.113 56.5564 127.136 56.5937 127.152C56.6311 127.168 56.6712 127.177 56.7119 127.177C56.7113 127.169 56.7191 127.169 56.7345 127.168Z" fill="#232923"/>
<path d="M60.1608 154.465C70.7888 154.465 77.5524 152.772 76.4678 145.27C75.7791 140.507 72.0737 135.847 69.4579 133.072C69.1214 132.716 68.7787 132.366 68.4299 132.022C67.4585 131.064 66.806 130.508 66.806 130.508L66.775 130.333L66.5901 129.283L66.3742 128.073L65.8861 125.302L65.7163 124.335L60.1608 124.092L54.3635 124.335L54.2301 125.302L54.0245 126.826L53.6851 129.288L53.5415 130.338L53.5207 130.513C53.5207 130.513 52.8682 131.064 51.8968 132.027C51.5493 132.372 51.2066 132.722 50.8688 133.077C48.2531 135.847 44.5476 140.512 43.8589 145.275C42.7692 152.772 49.5328 154.465 60.1608 154.465Z" fill="#232923"/>
<path d="M52.2033 126.091H68.2733C69.1339 126.091 69.8385 125.385 69.8385 124.523V123.542C69.8385 122.68 69.1339 121.974 68.2733 121.974H52.2033C51.3428 121.974 50.6382 122.68 50.6382 123.542V124.523C50.6382 125.385 51.3428 126.091 52.2033 126.091Z" fill="#232923"/>
<path d="M49.6833 87.5337C49.6833 89.2007 48.2672 90.5504 46.5181 90.5504C44.7689 90.5504 43.36 89.1941 43.36 87.5337C43.36 85.8664 44.7761 84.517 46.5253 84.517C48.2744 84.517 49.6833 85.8664 49.6833 87.5337Z" stroke="#E1E4E5" stroke-width="5.225" stroke-miterlimit="10"/>
<path d="M69.0526 69.1191C64.4842 73.1183 56.6258 71.6015 56.6258 71.6015C56.6258 71.6015 56.1792 63.601 60.7513 59.6045C65.3197 55.6053 73.1745 57.1191 73.1745 57.1191C73.1745 57.1191 73.6211 65.1196 69.0526 69.1191Z" fill="url(#paint2_linear_23_205)"/>
<path d="M86.4724 45.0291C86.2377 45.9066 86.7575 46.8086 87.6335 47.0437C88.5094 47.2789 89.4097 46.7581 89.6444 45.8806C89.8792 45.003 89.3593 44.101 88.4834 43.8659C87.6075 43.6307 86.7071 44.1515 86.4724 45.0291Z" fill="#E1E4E5"/>
<path d="M92.4362 65.8501C92.2015 66.7276 92.7213 67.6297 93.5973 67.8648C94.4732 68.0999 95.3735 67.5792 95.6082 66.7016C95.843 65.8241 95.3231 64.9221 94.4472 64.6869C93.5713 64.4518 92.6709 64.9726 92.4362 65.8501Z" fill="#E1E4E5"/>
<path d="M125.077 50.4428C124.842 51.3204 125.362 52.2224 126.238 52.4575C127.114 52.6926 128.014 52.1719 128.249 51.2943C128.484 50.4168 127.964 49.5148 127.088 49.2796C126.212 49.0445 125.312 49.5653 125.077 50.4428Z" fill="#E1E4E5"/>
<path d="M184.25 86.6865C184.095 87.2631 184.437 87.8558 185.013 88.0103C185.588 88.1648 186.18 87.8226 186.334 87.246C186.488 86.6694 186.147 86.0767 185.571 85.9222C184.995 85.7677 184.404 86.1099 184.25 86.6865Z" fill="#E1E4E5"/>
<path d="M184.705 112.904C184.47 113.782 184.99 114.684 185.866 114.919C186.742 115.154 187.642 114.633 187.877 113.756C188.112 112.878 187.592 111.976 186.716 111.741C185.84 111.506 184.94 112.027 184.705 112.904Z" fill="#E1E4E5"/>
<path d="M197.653 103.251C197.418 104.128 197.938 105.03 198.814 105.265C199.69 105.501 200.59 104.98 200.825 104.102C201.06 103.225 200.54 102.323 199.664 102.088C198.788 101.852 197.888 102.373 197.653 103.251Z" fill="#E1E4E5"/>
<path d="M174.645 68.3673V74.2314L169.361 80.5405H191.556C198.265 80.5405 203.707 75.0887 203.707 68.3673C203.707 61.6462 198.265 56.1945 191.556 56.1945H186.795C180.083 56.1945 174.645 61.6462 174.645 68.3673Z" fill="#E1E4E5"/>
<path d="M184.008 68.3468C184.008 68.9207 183.78 69.471 183.375 69.8769C182.97 70.2827 182.421 70.5107 181.848 70.511C181.275 70.5107 180.726 70.2826 180.321 69.8768C179.916 69.471 179.688 68.9207 179.688 68.3468C179.688 67.773 179.916 67.2227 180.321 66.8169C180.726 66.4111 181.275 66.183 181.848 66.1827C182.421 66.1829 182.97 66.411 183.375 66.8168C183.78 67.2226 184.008 67.7729 184.008 68.3468ZM191.348 68.3465C191.348 68.9204 191.121 69.4707 190.716 69.8765C190.311 70.2823 189.761 70.5104 189.188 70.5107C188.616 70.5104 188.066 70.2824 187.661 69.8766C187.256 69.4707 187.028 68.9204 187.028 68.3465C187.028 67.7726 187.256 67.2223 187.661 66.8165C188.066 66.4107 188.616 66.1826 189.188 66.1824C189.761 66.1827 190.31 66.4108 190.715 66.8166C191.12 67.2224 191.348 67.7727 191.348 68.3465ZM198.689 68.3465C198.689 68.9204 198.461 69.4707 198.056 69.8766C197.651 70.2824 197.101 70.5104 196.529 70.5107C195.956 70.5104 195.406 70.2824 195.001 69.8766C194.596 69.4707 194.369 68.9204 194.368 68.3465C194.369 67.7727 194.596 67.2224 195.001 66.8166C195.407 66.4108 195.956 66.1827 196.529 66.1824C197.101 66.1826 197.651 66.4107 198.056 66.8165C198.461 67.2223 198.689 67.7726 198.689 68.3465Z" fill="white"/>
<path d="M192.91 132.995L188.673 134.654L188.941 130.105L193.177 128.447L192.91 132.995V132.995Z" stroke="#E1E4E5" stroke-width="4.267" stroke-linecap="round" stroke-linejoin="round"/>
<path fill-rule="evenodd" clip-rule="evenodd" d="M99.6678 50.2205V38.6676C99.6678 37.4709 100.633 36.5016 101.825 36.5016H114.771C115.963 36.5016 116.929 37.4709 116.929 38.6676V50.2205C116.929 50.6066 116.826 50.9857 116.631 51.3186C116.436 51.6514 116.155 51.926 115.818 52.1138L109.346 55.7235C109.025 55.9025 108.665 55.9964 108.298 55.9964C107.931 55.9964 107.57 55.9025 107.25 55.7235L100.777 52.1138C100.441 51.9256 100.16 51.6509 99.9655 51.3181C99.7706 50.9853 99.6678 50.6064 99.6678 50.2205Z" fill="#E1E4E5"/>
<path d="M104.71 46.0549H111.886M104.71 42.6868H111.886M104.71 49.3255H111.886" stroke="white" stroke-width="3.682" stroke-linecap="round" stroke-linejoin="round"/>
<path d="M203.024 84.4327L197.541 89.9254C197.342 90.1254 197.342 90.4498 197.541 90.6498C197.741 90.8498 198.065 90.8498 198.265 90.6498L203.747 85.1571C203.947 84.957 203.947 84.6327 203.747 84.4327C203.547 84.2326 203.224 84.2326 203.024 84.4327Z" fill="#E1E4E5"/>
<path d="M202.487 88.3652L200.906 89.9493C200.707 90.1493 200.707 90.4736 200.906 90.6737C201.106 90.8737 201.43 90.8737 201.629 90.6737L203.211 89.0896C203.41 88.8896 203.41 88.5653 203.211 88.3652C203.011 88.1652 202.687 88.1652 202.487 88.3652Z" fill="#E1E4E5"/>
<path d="M229.101 67.8979C229.101 67.8979 224.476 66.6544 222.882 77.2767C221.287 87.8987 221.276 93.7169 221.276 93.7169C221.276 93.7169 220.69 96.0268 218.971 95.218C217.252 94.4093 214.292 91.481 212.285 92.8557C210.205 94.2826 210.305 97.1056 212.001 100.738C213.696 104.371 217.118 112.459 217.425 113.194C217.728 113.912 217.666 115.144 216.406 114.78C215.147 114.416 207.07 109.813 205.121 113.781C203.167 117.752 209.552 127.091 210.229 128.124C210.906 129.157 210.849 129.718 210.405 130.178C209.961 130.639 207.39 128.835 205.041 127.618C202.691 126.401 199.751 125.408 198.817 127.793C197.883 130.177 199.962 138.09 211.507 148.211L217.163 152.549L223.815 149.909C237.706 143.39 241.893 136.363 241.654 133.813C241.415 131.263 238.316 131.402 235.721 131.918C233.125 132.435 230.156 133.454 229.857 132.887C229.558 132.321 229.655 131.768 230.592 130.963C231.529 130.157 240.245 122.958 239.466 118.599C238.689 114.244 229.654 116.424 228.344 116.42C227.034 116.421 227.318 115.222 227.806 114.616C228.304 113.997 233.833 107.173 236.464 104.153C239.097 101.136 239.974 98.4486 238.369 96.5004C236.824 94.6195 233.167 96.6172 231.293 96.9173C229.418 97.2172 229.495 94.8319 229.495 94.8319C229.495 94.8319 231.097 89.2378 232.5 78.5887C233.902 67.9395 228.998 67.875 228.998 67.875" fill="#E1E4E5"/>
<path d="M217.045 151.057C218.103 143.239 219.658 132.452 221.42 120.543C223.178 108.639 224.758 97.8589 225.864 90.0469C226.412 86.1491 226.853 82.9912 227.161 80.7978C227.314 79.713 227.433 78.868 227.517 78.2822C227.557 78.0032 227.592 77.7863 227.613 77.6279C227.639 77.4825 227.655 77.4044 227.655 77.4044C227.655 77.4044 227.652 77.4789 227.638 77.6306C227.62 77.7881 227.595 78.0071 227.564 78.2879C227.491 78.8756 227.385 79.7215 227.252 80.8105C226.98 82.9991 226.563 86.1639 226.031 90.0713C224.973 97.8887 223.418 108.672 221.66 120.58C219.902 132.488 218.319 143.269 217.217 151.08" fill="white"/>
<path d="M216.262 97.1231C216.278 97.1143 216.39 97.2552 216.591 97.5246C216.791 97.7895 217.066 98.1822 217.4 98.67C218.068 99.6501 218.956 101.024 219.907 102.565C220.834 104.081 221.676 105.453 222.324 106.512C222.614 106.979 222.859 107.376 223.062 107.704C223.238 107.985 223.327 108.146 223.312 108.155C223.295 108.164 223.18 108.024 222.98 107.759C222.784 107.493 222.508 107.1 222.178 106.607C221.518 105.62 220.648 104.232 219.702 102.694L217.26 98.7675C216.969 98.3008 216.72 97.9056 216.517 97.5768C216.34 97.2917 216.25 97.1309 216.262 97.1231ZM223.97 108.066C223.932 108.011 226.681 106.049 230.112 103.692C233.542 101.33 236.357 99.4607 236.395 99.5153C236.433 99.5699 233.683 101.527 230.253 103.889C226.818 106.252 224.007 108.12 223.97 108.066ZM220.447 126.231C220.442 126.214 220.618 126.148 220.934 126.036C221.302 125.914 221.756 125.764 222.288 125.584C223.431 125.204 225.012 124.668 226.733 124.017C228.455 123.37 229.995 122.73 231.109 122.26C231.627 122.043 232.066 121.856 232.426 121.703C232.737 121.574 232.915 121.513 232.922 121.524C232.931 121.54 232.766 121.631 232.468 121.789C232.042 122.008 231.613 122.217 231.179 122.417C229.75 123.08 228.296 123.689 226.821 124.243C225.346 124.798 223.852 125.299 222.341 125.746C221.759 125.916 221.286 126.043 220.962 126.125C220.634 126.209 220.451 126.248 220.447 126.231ZM211.303 117.868C211.314 117.856 211.452 117.957 211.698 118.154C211.94 118.353 212.285 118.643 212.709 119.005C213.812 119.953 214.906 120.912 215.991 121.88C217.078 122.846 218.157 123.822 219.227 124.808C219.552 125.107 219.873 125.41 220.19 125.718C220.414 125.935 220.531 126.065 220.521 126.077C220.51 126.089 220.372 125.988 220.126 125.79C219.884 125.592 219.539 125.301 219.115 124.939C218.012 123.991 216.918 123.033 215.833 122.065C214.562 120.933 213.418 119.896 212.601 119.136C212.276 118.837 211.955 118.534 211.639 118.226C211.41 118.01 211.288 117.881 211.303 117.868ZM206.159 133.507C206.17 133.495 206.348 133.628 206.66 133.881C207.004 134.167 207.442 134.53 207.961 134.969C209.052 135.895 210.55 137.183 212.193 138.622C213.836 140.061 215.317 141.373 216.38 142.33C216.88 142.787 217.301 143.172 217.631 143.477C217.921 143.75 218.079 143.91 218.069 143.923C218.058 143.935 217.88 143.802 217.568 143.549C217.224 143.263 216.786 142.9 216.267 142.462C214.848 141.254 213.437 140.036 212.035 138.808C210.631 137.581 209.236 136.345 207.848 135.1C207.348 134.643 206.927 134.258 206.597 133.954C206.302 133.681 206.148 133.52 206.159 133.507ZM217.852 143.593C217.847 143.576 218.067 143.484 218.464 143.331C218.909 143.166 219.479 142.953 220.162 142.7C221.596 142.163 223.577 141.418 225.738 140.534C227.585 139.779 229.419 138.994 231.24 138.179C231.793 137.936 232.345 137.69 232.897 137.443C233.289 137.273 233.509 137.182 233.518 137.198C233.527 137.214 233.318 137.33 232.938 137.529C232.558 137.728 232.001 138.007 231.31 138.336C229.507 139.197 227.68 140.005 225.83 140.758C223.981 141.513 222.109 142.214 220.219 142.86C219.646 143.056 219.071 143.243 218.493 143.421C218.088 143.544 217.86 143.604 217.852 143.593Z" fill="white"/>
<path d="M214.973 77.2267H215.013C215.246 80.3993 217.703 80.4482 217.703 80.4482C217.703 80.4482 214.993 80.4992 214.993 84.165C214.993 80.4992 212.283 80.4482 212.283 80.4482C212.283 80.4482 214.74 80.3993 214.973 77.2267Z" fill="#E1E4E5"/>
<path d="M138.119 77.0719L133.564 93.7535L135.19 91.8798C134.589 92.2005 133.892 92.4464 133.12 92.6207C132.349 92.7954 131.509 92.8949 130.631 92.9414C129.753 92.9875 128.839 92.9806 127.901 92.9414C126.965 92.9022 126.009 92.831 125.038 92.7489H125.035C124.347 92.6905 123.664 92.9079 123.136 93.3533C122.608 93.7988 122.278 94.4359 122.219 95.1249C122.101 96.4929 123.072 97.7041 124.402 97.9213C125.405 98.0815 126.421 98.2311 127.467 98.3524C128.512 98.4734 129.582 98.5624 130.692 98.5874C131.801 98.6124 132.95 98.5696 134.137 98.3986C135.321 98.2275 136.551 97.9177 137.753 97.3976C138.119 97.2399 138.447 97.0067 138.717 96.7134C138.986 96.42 139.191 96.073 139.317 95.695L139.374 95.5203L144.839 79.113C145.454 77.268 144.459 75.2767 142.617 74.6604C140.775 74.0441 138.788 75.0417 138.173 76.8867C138.155 76.9473 138.134 77.0149 138.119 77.0719Z" fill="#F8AE9D"/>
<path d="M161.734 97.3813C161.734 97.3813 161.91 99.852 160.144 100.505L141.769 101.214C141.769 101.214 140.535 100.013 140.778 97.1358C140.778 97.1288 148.586 89.148 161.734 97.3813Z" fill="#3F573F"/>
<path d="M148.242 99.9874C148.303 100.457 148.509 100.817 148.704 100.789C148.896 100.764 149.007 100.361 148.946 99.8948C148.886 99.4245 148.679 99.0646 148.484 99.0933C148.288 99.118 148.182 99.5207 148.242 99.9874Z" fill="#B55E63"/>
<path d="M140.43 94.1264V94.1514C140.438 94.2202 140.441 94.2926 140.445 94.3686C140.463 94.6582 140.477 95.0057 140.488 95.4003C140.499 95.7189 140.503 96.0664 140.506 96.4392C140.506 96.718 140.51 97.0076 140.51 97.308C145.735 95.0455 156.419 96.6528 160.72 97.4384C160.677 97.2212 160.637 97.0076 160.598 96.7976C160.569 96.642 160.543 96.4899 160.514 96.3379C160.23 94.6835 160.078 93.196 160.028 91.8675L160.017 91.5127C159.973 89.5398 160.186 86.7346 160.619 83.8459C160.648 83.6468 160.681 83.4477 160.709 83.2522L160.774 82.8612C160.932 81.9019 161.116 80.9471 161.327 79.9981C161.399 79.6795 161.46 79.3574 161.511 79.0388C161.568 78.684 161.611 78.3293 161.644 77.9781C161.723 77.0876 161.716 76.2188 161.601 75.4116C161.395 73.9744 160.836 72.7367 159.8 71.9403C159.216 71.4914 158.476 71.1801 157.559 71.057C157.26 71.0172 156.964 70.9774 156.679 70.9448C155.78 70.8362 154.954 70.7602 154.283 70.7059C154.063 70.6878 153.857 70.6733 153.673 70.6588C153.204 70.6262 152.858 70.6045 152.688 70.5973C152.647 70.5956 152.606 70.5931 152.565 70.59L144.544 72.8163L143.779 73.0263C143.454 73.1276 143.148 73.2254 142.862 73.3195C142.155 73.5548 141.553 73.7792 141.033 73.9998C140.391 74.2749 139.878 74.5428 139.474 74.8251C137.706 76.0523 137.959 77.4677 137.966 80.2551V80.447C137.966 80.6569 137.962 80.8666 137.955 81.0766C137.948 81.3408 137.934 81.6015 137.912 81.8621C137.876 82.387 138.187 82.8992 138.122 83.4133C138.963 87.0309 139.173 88.2375 139.474 90.5C139.735 92.4609 139.684 93.5761 140.232 93.9816C140.355 94.0757 140.43 94.1264 140.43 94.1264Z" fill="#3F573F"/>
<path d="M152.391 70.9843C152.391 70.9843 151.684 73.6664 149.01 74.4109C145.611 75.3549 145.099 74.2115 145.099 74.2115C145.183 73.726 145.214 73.2326 145.191 72.7403C145.183 72.5439 145.167 72.3479 145.145 72.1527C145.085 71.6039 144.971 71.0057 144.811 70.3215C144.775 70.1614 144.733 69.9939 144.69 69.8229L144.687 69.8015C147.012 68.9254 148.836 67.6108 149.952 65.6659L150.283 65.4059L150.507 65.2279L150.571 65.3631L150.582 65.8156C150.628 67.942 150.987 69.1996 152.391 70.9843Z" fill="#F8AE9D"/>
<path d="M136.366 137.554C136.434 137.554 136.501 137.543 136.569 137.518L160.427 128.901C160.573 128.844 160.691 128.731 160.756 128.588C160.82 128.445 160.827 128.282 160.774 128.134C160.72 127.986 160.612 127.865 160.471 127.796C160.33 127.727 160.167 127.716 160.018 127.765L136.16 136.382C136.026 136.43 135.914 136.524 135.843 136.647C135.772 136.77 135.746 136.915 135.771 137.055C135.796 137.195 135.869 137.322 135.978 137.413C136.087 137.504 136.224 137.554 136.366 137.554Z" fill="#3F573F"/>
<path d="M161.213 137.554C161.354 137.554 161.492 137.503 161.6 137.412C161.708 137.32 161.781 137.193 161.805 137.053C161.829 136.913 161.803 136.769 161.732 136.647C161.661 136.524 161.549 136.43 161.416 136.382L137.273 127.622C137.124 127.573 136.962 127.583 136.82 127.652C136.679 127.721 136.569 127.842 136.516 127.99C136.462 128.138 136.468 128.301 136.532 128.444C136.597 128.588 136.715 128.701 136.861 128.759L161.003 137.518C161.078 137.543 161.145 137.554 161.213 137.554Z" fill="#3F573F"/>
<path d="M134.244 152.953C134.493 152.952 134.733 152.861 134.921 152.697C135.108 152.533 135.23 152.306 135.264 152.059L139.573 119.825H157.604L161.846 152.059C161.863 152.193 161.907 152.323 161.975 152.44C162.042 152.558 162.132 152.66 162.24 152.743C162.347 152.825 162.47 152.886 162.6 152.921C162.731 152.955 162.867 152.964 163.001 152.946C163.136 152.928 163.265 152.884 163.382 152.817C163.499 152.749 163.602 152.659 163.684 152.551C163.766 152.444 163.827 152.321 163.861 152.19C163.896 152.059 163.905 151.922 163.887 151.788L159.527 118.657C159.495 118.409 159.373 118.181 159.186 118.016C158.998 117.85 158.757 117.759 158.507 117.759H138.67C138.421 117.759 138.18 117.849 137.992 118.014C137.804 118.178 137.683 118.405 137.65 118.653L133.22 151.785C133.184 152.056 133.257 152.331 133.423 152.549C133.589 152.766 133.834 152.909 134.105 152.946C134.151 152.953 134.197 152.953 134.244 152.953Z" fill="#3F573F"/>
<path d="M144.416 118.792H157.298C161.38 118.792 165.75 116.555 166.376 112.512C167.165 107.406 167.437 102.234 167.186 97.0733C166.923 91.6412 164.335 86.5901 160.072 83.2238C160.072 83.2238 157.497 94.4588 160.733 109.968C159.503 115.864 144.416 118.792 144.416 118.792Z" fill="#3F573F"/>
<path d="M114.61 139.142H120.363C120.363 139.142 121.696 132.745 122.141 129.154C122.588 125.567 122.82 117.061 122.82 117.061C122.82 117.061 127.406 118.553 137.006 117.99C158.276 116.747 150.212 101.091 150.212 101.091C149.494 102.085 145.092 101.398 142.084 101.872C132.85 102.759 124.839 106.392 120.036 108.469C118.877 108.967 117.849 109.498 116.949 110.054C115.79 110.77 115.065 112.939 114.628 115.796C113.312 124.377 114.61 139.142 114.61 139.142Z" fill="#232923"/>
<path d="M114.77 146.527H118.83L119.612 141.754L120.039 139.143H114.994L114.915 141.754L114.77 146.527Z" fill="#F8AE9D"/>
<path d="M114.77 146.527H118.83L119.413 142.972L119.612 141.753H114.915L114.876 143.018L114.77 146.527Z" fill="url(#paint3_linear_23_205)"/>
<path d="M104.747 152.953H120.11C120.224 152.747 120.288 152.451 120.313 152.098C120.409 150.794 119.996 148.718 119.79 147.407C119.765 147.253 119.744 147.111 119.726 146.983C119.698 146.762 119.68 146.58 119.68 146.449C119.68 145.38 118.734 145.561 118.734 145.561C117.18 147.09 115.42 144.799 114.393 145.551C114.393 145.551 114.35 145.583 114.258 145.654C114.172 145.722 114.041 145.829 113.859 145.982C113.596 146.203 113.23 146.52 112.732 146.969C111.513 148.069 109.44 148.793 107.673 149.533C107.449 149.626 107.239 149.722 107.043 149.815C106.898 149.886 106.759 149.957 106.627 150.029C105.184 150.809 104.725 151.557 104.622 152.098C104.519 152.622 104.747 152.953 104.747 152.953Z" fill="#232923"/>
<path d="M104.747 152.953H120.11C120.224 152.746 120.288 152.451 120.313 152.098H104.622C104.519 152.622 104.747 152.953 104.747 152.953Z" fill="#232923"/>
<path d="M153.339 75.2278L148.232 94.094L150.053 91.9751C149.379 92.3383 148.598 92.6141 147.734 92.8129C146.871 93.0083 145.927 93.1236 144.946 93.1724C143.961 93.2249 142.935 93.2144 141.884 93.1724C140.834 93.1272 139.763 93.0503 138.674 92.9562H138.667C137.06 92.8165 135.647 94.0207 135.509 95.6437C135.377 97.19 136.466 98.5617 137.959 98.8061C139.082 98.9877 140.226 99.1587 141.397 99.2948C142.569 99.4311 143.771 99.5358 145.015 99.5636C146.259 99.5916 147.548 99.5427 148.878 99.3473C150.209 99.1518 151.587 98.8028 152.935 98.2163C153.799 97.8392 154.411 97.1237 154.69 96.2929L154.756 96.0974L160.879 77.5386C161.567 75.451 160.454 73.1997 158.388 72.5016C156.325 71.8069 154.093 72.9309 153.402 75.0181C153.381 75.0845 153.356 75.1648 153.339 75.2278Z" fill="#F8AE9D"/>
<path d="M124.629 139.16H130.382C130.382 139.16 131.716 132.763 132.16 129.172C132.608 125.585 132.839 117.078 132.839 117.078C132.839 117.078 137.426 118.571 147.026 118.008C168.296 116.765 160.231 101.109 160.231 101.109C159.513 102.103 154.123 103.475 151.115 103.948C141.881 104.835 134.859 106.406 130.055 108.487C128.896 108.985 127.869 109.516 126.969 110.072C125.81 110.788 125.085 112.957 124.647 115.814C123.328 124.395 124.629 139.16 124.629 139.16Z" fill="#232923"/>
<path d="M124.786 146.548H128.85L129.632 141.775L130.059 139.16H125.014L124.932 141.775L124.786 146.548Z" fill="#F8AE9D"/>
<path d="M124.786 146.548H128.85L129.429 142.993L129.632 141.775H124.932L124.892 143.039L124.786 146.548Z" fill="url(#paint4_linear_23_205)"/>
<path d="M114.763 152.974H130.126C130.24 152.767 130.304 152.472 130.329 152.119C130.425 150.816 130.013 148.739 129.806 147.428C129.782 147.275 129.76 147.132 129.742 147.004C129.714 146.783 129.696 146.601 129.696 146.469C129.696 145.401 128.75 145.582 128.75 145.582C127.197 147.111 125.437 144.82 124.409 145.572C124.409 145.572 124.366 145.604 124.274 145.675C124.188 145.743 124.057 145.85 123.876 146.003C123.612 146.224 123.246 146.541 122.749 146.989C121.529 148.09 119.456 148.813 117.689 149.554C117.465 149.647 117.255 149.743 117.06 149.836C116.914 149.907 116.775 149.978 116.644 150.05C115.2 150.83 114.741 151.578 114.638 152.119C114.539 152.639 114.763 152.974 114.763 152.974Z" fill="#232923"/>
<path d="M114.762 152.974H130.126C130.24 152.767 130.304 152.472 130.329 152.119H114.638C114.539 152.639 114.762 152.974 114.762 152.974Z" fill="#232923"/>
<path d="M93.1854 100.908V102.506C93.1854 103.428 93.75 104.171 94.4516 104.171H182.449C183.147 104.171 183.715 103.428 183.715 102.506V100.908C183.715 99.9901 183.151 99.242 182.449 99.242H94.4516C93.7536 99.2465 93.1854 99.9901 93.1854 100.908Z" fill="#E1E4E5"/>
<path d="M97.685 106.444H176.893C177.248 106.444 177.537 106.209 177.537 105.917V103.142H97.0451V105.917C97.0451 106.209 97.333 106.444 97.685 106.444ZM181.174 153.377L169.953 106.773H173.896L185.113 153.377H181.174ZM104.309 153.377L115.531 106.773H111.591L100.37 153.377H104.309Z" fill="#E1E4E5"/>
<path d="M103.833 74.8314L107.957 92.3073L108.068 92.7667L108.345 93.9423C108.403 94.1896 108.543 94.41 108.742 94.5678C108.94 94.7255 109.186 94.8114 109.44 94.8114H137.227C137.952 94.8114 138.493 94.1312 138.326 93.4222L133.813 74.3114C133.755 74.0641 133.616 73.8437 133.417 73.6859C133.218 73.5282 132.972 73.4423 132.718 73.4423H104.931C104.203 73.4456 103.666 74.1261 103.833 74.8314Z" fill="#3F573F"/>
<path d="M117.333 84.8766C117.465 86.0809 118.546 87.0531 119.748 87.0531C120.949 87.0531 121.813 86.0772 121.682 84.8766C121.55 83.6727 120.469 82.7004 119.268 82.7004C118.066 82.7004 117.202 83.6727 117.333 84.8766Z" fill="white"/>
<path d="M131.613 73.4456L136.417 94.8147H137.227C137.953 94.8147 138.489 94.1345 138.322 93.4255L133.81 74.3147C133.752 74.0674 133.612 73.847 133.414 73.6892C133.215 73.5315 132.969 73.4456 132.715 73.4456H131.613ZM123.584 94.6416L124.346 98.9135H121.828L121.066 94.6416H123.584Z" fill="#232923"/>
<path d="M127.846 98.528L127.277 97.7264C127.176 97.5854 127.044 97.4705 126.89 97.3913C126.736 97.312 126.565 97.2706 126.392 97.2706H118.758C118.56 97.2701 118.366 97.3243 118.196 97.4274C118.027 97.5304 117.889 97.6783 117.798 97.8547L117.414 98.5922C117.233 98.9376 117.485 99.3473 117.873 99.3473H127.423C127.843 99.3473 128.088 98.8701 127.846 98.528Z" fill="#232923"/>
<path d="M143.481 70.4413C143.481 70.4413 151.176 69.6904 150.635 64.8966C150.094 60.1029 150.722 56.7773 145.787 57.0545C140.852 57.3314 140.104 59.2681 139.897 60.9119C139.689 62.556 141.466 70.5128 143.481 70.4413Z" fill="#F8AE9D"/>
<path d="M137.006 56.6967C137.006 56.6967 137.799 61.1457 139.311 61.308C140.822 61.47 140.281 59.5994 140.281 59.5994L139.873 57.4892L137.006 56.6967Z" fill="#002C54"/>
<path d="M150.083 55.2693C149.881 53.5841 148.113 53.1105 148.113 53.1105C146.34 52.4764 142.84 53.1561 139.274 54.3127C138.433 54.5839 137.315 54.1624 136.759 54.6333C136.086 55.2026 137.017 57.4244 137.017 57.4244C138.825 61.5554 143.864 59.6796 145.371 59.0054C145.846 60.0676 145.942 61.597 146.935 62.3008C147.503 62.7002 148.414 62.6272 149.331 62.3835C149.463 62.5889 149.913 62.7424 150.027 63.0323C150.414 64.0025 150.518 65.566 150.623 66.7679L151.042 66.5103C151.067 66.1766 154.59 54.9869 150.083 55.2693Z" fill="#002C54"/>
<path d="M80.1055 56.11H70.7611C67.4351 56.11 64.7389 58.8112 64.7389 62.1433V66.2786C64.7389 69.6107 67.4351 72.3119 70.7611 72.3119H80.1055C83.4315 72.3119 86.1277 69.6107 86.1277 66.2786V62.1433C86.1277 58.8112 83.4315 56.11 80.1055 56.11Z" fill="#3F573F"/>
<path d="M77.053 70.0146L76.8369 69.798C76.0137 68.9734 74.6791 68.9734 73.856 69.798L73.6399 70.0146C72.8168 70.8392 72.8168 72.1762 73.6399 73.0009L73.856 73.2174C74.6791 74.0421 76.0137 74.0421 76.8369 73.2174L77.053 73.0009C77.8761 72.1762 77.8761 70.8392 77.053 70.0146Z" fill="#3F573F"/>
<path fill-rule="evenodd" clip-rule="evenodd" d="M77.6114 59.5942C79.4825 59.5942 80.7369 61.3463 80.7369 62.978C80.7369 66.29 75.5283 69.0017 75.4332 69.0017C75.3383 69.0017 70.1297 66.29 70.1297 62.978C70.1297 61.3463 71.3841 59.5942 73.2552 59.5942C74.3248 59.5942 75.0273 60.1264 75.4332 60.6003C75.8394 60.1264 76.5418 59.5942 77.6114 59.5942Z" fill="white"/>
</g>
<defs>
<linearGradient id="paint0_linear_23_205" x1="146.97" y1="212.617" x2="144.948" y2="-79.0294" gradientUnits="userSpaceOnUse">
<stop stop-color="white"/>
<stop offset="1" stop-color="#EEEEEE"/>
</linearGradient>
<linearGradient id="paint1_linear_23_205" x1="152.461" y1="159.719" x2="152.453" y2="140.541" gradientUnits="userSpaceOnUse">
<stop stop-color="white"/>
<stop offset="1" stop-color="#EEEEEE"/>
</linearGradient>
<linearGradient id="paint2_linear_23_205" x1="51.0142" y1="82.5936" x2="85.4065" y2="36.8603" gradientUnits="userSpaceOnUse">
<stop stop-color="white"/>
<stop offset="1" stop-color="#EEEEEE"/>
</linearGradient>
<linearGradient id="paint3_linear_23_205" x1="117.088" y1="149.203" x2="117.233" y2="136.561" gradientUnits="userSpaceOnUse">
<stop stop-color="white"/>
<stop offset="1" stop-color="#EEEEEE"/>
</linearGradient>
<linearGradient id="paint4_linear_23_205" x1="127.106" y1="149.224" x2="127.251" y2="136.582" gradientUnits="userSpaceOnUse">
<stop stop-color="white"/>
<stop offset="1" stop-color="#EEEEEE"/>
</linearGradient>
<clipPath id="clip0_23_205">
<rect width="271" height="181" fill="white"/>
</clipPath>
</defs>
</svg>
