<svg width="271" height="181" viewBox="0 0 271 181" fill="none" xmlns="http://www.w3.org/2000/svg">
<g clip-path="url(#clip0_23_327)">
<path fill-rule="evenodd" clip-rule="evenodd" d="M65.9698 150.77C79.3657 162.225 99.5202 161.608 112.187 148.917C124.855 136.227 125.471 116.035 114.037 102.614L65.9698 150.77Z" fill="url(#paint0_linear_23_327)"/>
<path d="M128.552 112.002H174.647V157.845H128.552V112.002ZM107.563 60.0911L125.169 77.7295L107.8 95.129L90.1948 77.4906L107.563 60.0911Z" fill="#232923"/>
<path d="M151.936 112.002C164.479 112.002 174.647 101.815 174.647 89.2487C174.647 76.6826 164.479 66.4958 151.936 66.4958C139.393 66.4958 129.225 76.6826 129.225 89.2487C129.225 101.815 139.393 112.002 151.936 112.002Z" fill="#3F573F"/>
<path d="M115.261 54.6976C123.159 54.6976 129.561 48.2837 129.561 40.3717C129.561 32.4598 123.159 26.0459 115.261 26.0459C107.364 26.0459 100.962 32.4598 100.962 40.3717C100.962 48.2837 107.364 54.6976 115.261 54.6976Z" fill="#3F573F"/>
<path d="M82.1199 72.5629C88.252 72.5629 93.2231 67.5827 93.2231 61.4393C93.2231 55.2958 88.252 50.3156 82.1199 50.3156C75.9878 50.3156 71.0168 55.2958 71.0168 61.4393C71.0168 67.5827 75.9878 72.5629 82.1199 72.5629Z" fill="#F8AE9D"/>
<path d="M79.4283 101.552C84.0739 101.552 87.8398 97.7793 87.8398 93.1251C87.8398 88.471 84.0739 84.6981 79.4283 84.6981C74.7827 84.6981 71.0168 88.471 71.0168 93.1251C71.0168 97.7793 74.7827 101.552 79.4283 101.552Z" fill="url(#paint1_linear_23_327)"/>
<path d="M171.977 16.8448L187.539 75.0297L129.461 59.4392L171.977 16.8448Z" fill="#F8AE9D"/>
<path d="M39.7081 99.1747L73.101 108.139L48.6556 132.63L39.7081 99.1747Z" fill="#3F573F"/>
<path d="M219.969 43.4303C220.162 44.2005 219.907 45.0014 219.486 45.6741C219.189 46.1493 218.773 45.6244 218.167 45.5405C217.229 45.4087 216.636 44.4147 216.433 41.9923C216.339 40.223 216.383 39.3403 216.482 39.1859C216.832 38.6329 217.733 38.448 218.443 38.5014" fill="#232923"/>
<path fill-rule="evenodd" clip-rule="evenodd" d="M218.268 148.711C218.268 148.711 218.325 152.349 216.083 153.641C213.842 154.934 210.37 157.335 210.37 157.335L223.579 157.78L223.202 148.679L218.268 148.711Z" fill="#F8AE9D"/>
<path fill-rule="evenodd" clip-rule="evenodd" d="M224.039 152.72L224.254 158.621H221.186L220.976 157.861C220.976 157.861 219.821 157.814 219.154 158.142C218.448 158.489 218.353 158.658 218.353 158.658L208.622 158.678C208.622 158.678 208.142 156.771 211.108 155.391C214.075 154.011 216.235 152.053 216.645 151.853C217.058 151.651 217.892 151.536 218.479 152.011C219.066 152.485 219.53 153.732 220.861 153.772C222.574 153.822 223.557 151.722 224.039 152.72V152.72ZM227.832 89.3437C227.832 89.3437 224.228 119.989 224.115 122.119C224.003 124.25 225.273 127.926 225.248 131.911C225.224 135.896 224.785 149.94 224.785 149.94L216.832 150.07C216.832 150.07 213.49 124.691 213.454 120.885C213.418 117.08 213.112 89.7099 213.112 89.7099L227.832 89.3437V89.3437Z" fill="#232923"/>
<path fill-rule="evenodd" clip-rule="evenodd" d="M237.558 148.072L239.108 157.501L233.395 157.472L233.214 147.924L237.558 148.072V148.072Z" fill="#F8AE9D"/>
<path fill-rule="evenodd" clip-rule="evenodd" d="M238.436 152.208C238.633 152.251 238.809 152.358 238.938 152.513C239.067 152.667 239.14 152.861 239.147 153.062L239.202 154.736C240.019 155.646 240.4 158.292 240.434 158.534C240.435 158.547 240.436 158.559 240.435 158.572C240.349 159.863 231.895 159.84 231.21 158.616C231.189 158.575 231.183 158.527 231.193 158.482C231.268 158.018 231.733 155.366 232.642 154.651L232.648 152.996C232.649 152.797 232.715 152.604 232.836 152.447C232.956 152.29 233.125 152.177 233.317 152.125L234.431 151.825C235.266 150.601 236.404 150.644 237.379 151.978L238.436 152.208V152.208ZM234.753 89.6324C234.753 89.6324 237.299 110.541 237.265 114.545C237.23 118.549 236.481 120.307 237.547 123.18C238.613 126.052 239.522 148.978 239.522 148.978L231.64 149.636C231.64 149.636 226.604 125.104 226.056 121.702C225.508 118.301 218.74 89.3437 218.74 89.3437L234.753 89.6324Z" fill="#232923"/>
<path fill-rule="evenodd" clip-rule="evenodd" d="M195.446 52.039C195.446 52.039 196.105 48.3644 195.868 47.6205C195.666 46.9774 193.755 46.05 193.755 46.05C193.755 46.05 190.432 40.7911 189.705 41.3265C189.114 41.7606 191.436 45.6377 191.436 45.6377C191.436 45.6377 189.318 47.8634 189.348 48.8583C189.378 49.8532 192.804 52.9679 192.804 52.9679L195.446 52.039V52.039ZM229.599 52.9024C229.599 52.9024 227.411 52.3878 227.335 48.7952C227.259 45.2027 227.312 43.9764 227.312 43.9764L222.124 43.8892C222.124 43.8892 222.072 47.8929 222.071 49.3412C222.069 52.4939 219.732 53.3459 219.732 53.3459C219.732 53.3459 219.926 56.7933 224.294 57.0395C227.704 57.2316 229.599 52.9024 229.599 52.9024V52.9024Z" fill="#F8AE9D"/>
<path fill-rule="evenodd" clip-rule="evenodd" d="M227.789 42.1603C229.939 42.077 229.588 45.231 227.355 45.2268C227.355 45.2268 224.954 50.0628 221.185 50.0754C219.369 50.0815 218.776 48.4612 218.232 47.3236C217.688 46.1863 217.288 44.485 217.255 43.4433C217.219 42.3326 217.215 38.6836 217.215 38.6836L227.873 38.6788L227.789 42.1603V42.1603Z" fill="#F8AE9D"/>
<path fill-rule="evenodd" clip-rule="evenodd" d="M219.65 53.1319C219.65 53.1319 214.06 54.8798 212.714 56.9679C208.375 60.7867 202.948 66.0312 202.948 66.0312C202.948 66.0312 197.779 53.0357 196.09 51.5539C194.934 50.54 192.63 51.7937 192.201 53.0818C191.65 54.7368 195.19 64.4423 196.861 69.0261H196.862V69.027C197.186 69.9148 197.439 70.6102 197.579 71.018C198.599 73.981 201.08 75.6806 204.098 73.7973C205.315 73.038 208.936 70.5505 212.025 68.2952C212.073 70.6642 212.155 73.1605 212.232 75.5313V75.5322C212.42 81.2925 212.583 86.3122 212.19 86.9644C210.241 90.1977 212.832 92.4171 221.409 93.2325C229.987 94.0479 237.596 93.38 236.215 89.0655C235.927 88.1663 235.931 86.2314 236.074 83.7173C236.915 83.6725 237.754 83.6171 238.593 83.5511C242.173 83.2684 244.82 81.7275 245.189 77.7256C245.448 74.9231 240.119 61.7662 238.12 57.44C237.653 56.4279 236.93 55.7977 236.111 55.4837C235.921 55.2704 235.706 55.1208 235.465 55.0412C233.997 54.5564 228.734 52.3413 228.734 52.3413L222.473 56.4451L219.65 53.1319V53.1319ZM236.654 76.2915L236.668 76.328L236.651 76.3301L236.654 76.2915V76.2915Z" fill="#3F573F"/>
<path fill-rule="evenodd" clip-rule="evenodd" d="M222.762 79.7637C222.762 79.7637 220.852 79.379 220.071 78.7645C219.29 78.1497 216.923 77.7153 216.923 77.7153L217.68 79.3127C217.68 79.3127 211.879 78.7672 211.742 79.3404C211.604 79.9139 213.282 80.5371 213.282 80.5371C213.282 80.5371 214.109 82.0856 214.91 82.983C215.668 83.8322 219.434 83.7312 220.753 83.2011C221.894 82.7432 223.134 82.9722 223.134 82.9722L222.762 79.7637Z" fill="#F8AE9D"/>
<path d="M227.204 38.8275C226.89 39.2396 226.336 39.3304 225.879 39.4122C225.266 39.5214 224.963 39.7497 224.644 40.3618C224.442 40.7531 224.241 41.1814 223.88 41.3932C223.586 41.5667 223.595 41.1281 223.551 40.789C223.547 40.7573 223.541 40.726 223.533 40.6952C223.463 40.424 223.175 40.4695 223.092 40.7368C223.016 40.979 222.852 41.1839 222.644 41.2979C222.61 41.3166 222.574 41.3329 222.538 41.3256C222.489 41.3187 222.451 41.2723 222.419 41.2303C222.353 41.1431 222.287 41.0327 222.219 40.9157C221.995 40.5286 221.566 40.6644 221.315 41.0348C221.158 41.2653 220.972 41.5027 220.715 41.5564C220.632 41.5748 220.528 41.5609 220.49 41.4795C220.441 41.3793 220.517 41.2792 220.505 41.1769C220.494 41.0813 220.454 41.0394 220.409 40.9579C220.235 40.6436 219.832 40.6321 219.587 40.894C219.416 41.0762 219.238 41.2513 219.053 41.4189C218.974 41.4889 218.859 41.5585 218.781 41.4888C218.738 41.4514 218.728 41.3887 218.719 41.3281C218.675 41.0324 218.632 40.7368 218.588 40.4412C218.562 40.2758 218.475 40.0593 218.327 40.1012C218.254 40.122 218.212 40.1989 218.172 40.2689C218.123 40.3573 217.25 41.3655 217.233 41.2885C217.098 40.7157 216.819 40.1944 216.683 39.6215C215.805 35.9361 219.704 32.9722 222.683 32.9559C223.345 32.9514 223.95 32.9622 224.593 33.1182C225.279 33.2859 226.003 33.552 226.625 33.927C227.497 34.4507 228.157 35.403 227.987 36.5391" fill="#232923"/>
<path d="M224.782 37.6362C224.362 38.1177 224.251 38.7946 224.212 39.4342C224.154 40.3986 224.232 41.4007 224.673 42.2569C224.799 42.5006 224.891 43.707 225.085 43.6403C225.146 43.6195 225.136 42.684 225.299 42.1799C225.55 41.3986 226.707 41.1009 227.228 41.5944C228.059 42.3799 227.572 43.3341 227.296 43.9278C227.131 44.2862 226.87 44.6883 226.824 45.0672C226.769 45.5529 226.752 47.3215 227.065 47.7339C227.327 48.0796 227.604 46.409 227.841 46.0799C229.593 43.6279 231.273 37.3843 228.282 36.0302C227.827 35.8238 226.423 35.7176 225.997 35.9801" fill="#232923"/>
<path d="M85.8063 118.308C86.9651 117.147 86.9651 115.265 85.8063 114.104C84.6474 112.943 82.7685 112.943 81.6097 114.104L72.1057 123.625C70.9468 124.786 70.9468 126.669 72.1057 127.83C73.2645 128.991 75.1434 128.991 76.3023 127.83L85.8063 118.308Z" fill="#E1E4E5"/>
<path d="M68.3107 80.187C69.2161 79.2799 69.2162 77.8092 68.3108 76.9021C67.4054 75.9951 65.9374 75.9951 65.032 76.9023L58.8612 83.0844C57.9557 83.9915 57.9557 85.4622 58.8611 86.3693C59.7665 87.2764 61.2344 87.2763 62.1399 86.3692L68.3107 80.187Z" fill="#E1E4E5"/>
<path d="M94.8438 35.1645C95.7142 34.2925 95.7142 32.8787 94.8439 32.0067C93.9735 31.1348 92.5624 31.1348 91.6919 32.0068L85.3785 38.3319C84.5081 39.2039 84.508 40.6177 85.3784 41.4897C86.2487 42.3616 87.6599 42.3616 88.5303 41.4896L94.8438 35.1645Z" fill="#E1E4E5"/>
<path d="M149.564 27.0831L149.564 27.0829C148.62 26.1378 147.091 26.1378 146.148 27.0829L140.017 33.2249C139.074 34.17 139.074 35.7022 140.017 36.6473L140.017 36.6475C140.961 37.5926 142.49 37.5926 143.433 36.6475L149.564 30.5055C150.507 29.5604 150.507 28.0282 149.564 27.0831Z" fill="#E1E4E5"/>
<path d="M119.512 153.931C121.162 153.539 122.907 154.941 122.907 154.941C122.907 154.941 121.976 156.977 120.325 157.368C118.675 157.76 116.93 156.359 116.93 156.359C116.93 156.359 117.862 154.322 119.512 153.931V153.931Z" fill="url(#paint2_linear_23_327)"/>
<path d="M128.769 67.5233C127.306 66.5142 125.072 67.2195 125.072 67.2195C125.072 67.2195 125.21 69.5613 126.674 70.5695C128.136 71.5789 130.369 70.8742 130.369 70.8742C130.369 70.8742 130.231 68.5327 128.769 67.5233V67.5233Z" fill="url(#paint3_linear_23_327)"/>
<path d="M194.281 100.367C192.072 98.1147 187.941 98.5895 187.941 98.5895C187.941 98.5895 187.394 102.717 189.606 104.968C191.815 107.22 195.944 106.747 195.944 106.747C195.944 106.747 196.49 102.62 194.281 100.367V100.367Z" fill="url(#paint4_linear_23_327)"/>
<path d="M60.1442 72.2993C62.5015 72.2993 64.4125 70.4719 64.4125 68.2177C64.4125 65.9635 62.5015 64.1362 60.1442 64.1362C57.7869 64.1362 55.876 65.9635 55.876 68.2177C55.876 70.4719 57.7869 72.2993 60.1442 72.2993Z" fill="#3F573F"/>
<path d="M187.999 32.9124C190.357 32.9124 192.268 30.9979 192.268 28.6363C192.268 26.2747 190.357 24.3602 187.999 24.3602C185.642 24.3602 183.731 26.2747 183.731 28.6363C183.731 30.9979 185.642 32.9124 187.999 32.9124Z" fill="#3F573F"/>
<path d="M59.7561 133.575C61.899 133.575 63.6362 135.402 63.6362 137.657C63.6362 139.911 61.899 141.738 59.7561 141.738C57.6132 141.738 55.876 139.911 55.876 137.657C55.876 135.402 57.6132 133.575 59.7561 133.575Z" fill="#3F573F"/>
<path d="M237.162 79.9788C238.984 79.9788 240.46 81.4581 240.46 83.2829C240.46 85.1078 238.984 86.5871 237.162 86.5871C235.341 86.5871 233.864 85.1078 233.864 83.2829C233.864 81.4581 235.341 79.9788 237.162 79.9788Z" fill="#3F573F"/>
<path d="M125.141 61.4392C126.23 61.4392 127.113 62.324 127.113 63.4154C127.113 64.5069 126.23 65.3917 125.141 65.3917C124.051 65.3917 123.168 64.5069 123.168 63.4154C123.168 62.324 124.051 61.4392 125.141 61.4392Z" fill="white"/>
<path d="M153.506 21.3266C154.652 21.3266 155.58 22.2572 155.58 23.4051C155.58 24.553 154.652 25.4836 153.506 25.4836C152.36 25.4836 151.431 24.553 151.431 23.4051C151.431 22.2572 152.36 21.3266 153.506 21.3266Z" fill="#E1E4E5"/>
<path d="M99.557 98.7249C100.122 98.7249 100.579 99.1835 100.579 99.7491C100.579 100.315 100.122 100.773 99.557 100.773C98.9924 100.773 98.5347 100.315 98.5347 99.7491C98.5347 99.1835 98.9924 98.7249 99.557 98.7249Z" fill="#E1E4E5"/>
<path d="M121.364 154.811C122.226 154.811 122.924 155.511 122.924 156.374C122.924 157.238 122.226 157.938 121.364 157.938C120.502 157.938 119.804 157.238 119.804 156.374C119.804 155.511 120.502 154.811 121.364 154.811Z" fill="white"/>
<path d="M179.021 86.0908C179.021 84.9492 179.945 84.0238 181.084 84.0238C182.224 84.0238 183.148 84.9492 183.148 86.0908C183.148 87.2324 182.224 88.1578 181.084 88.1578C179.945 88.1578 179.021 87.2324 179.021 86.0908Z" fill="#E1E4E5"/>
<path d="M188.221 125.148C189.399 125.148 190.355 126.105 190.355 127.286C190.355 128.467 189.399 129.424 188.221 129.424C187.042 129.424 186.087 128.467 186.087 127.286C186.087 126.105 187.042 125.148 188.221 125.148Z" fill="#E1E4E5"/>
<path d="M41.6369 85.9824C43.0643 84.5281 45.1504 84.2644 46.2965 85.3934C47.4425 86.5224 47.2144 88.6166 45.787 90.0709C44.3597 91.5252 42.2735 91.7889 41.1274 90.6599C39.9814 89.5309 40.2095 87.4367 41.6369 85.9824Z" fill="#E1E4E5"/>
<path d="M121.699 98.9786C121.395 97.8434 122.068 96.6765 123.201 96.3724C124.334 96.0682 125.499 96.7419 125.802 97.877C126.106 99.0122 125.434 100.179 124.3 100.483C123.167 100.787 122.003 100.114 121.699 98.9786Z" fill="white"/>
<path d="M95.2146 113.043H95.1872C95.0255 110.746 93.3206 110.711 93.3206 110.711C93.3206 110.711 95.2005 110.674 95.2005 108.021C95.2005 110.674 97.0803 110.711 97.0803 110.711C97.0803 110.711 95.3763 110.746 95.2146 113.043V113.043ZM185.297 40.3986H185.265C185.075 37.651 183.076 37.6088 183.076 37.6088C183.076 37.6088 185.281 37.5648 185.281 34.39C185.281 37.5648 187.485 37.6088 187.485 37.6088C187.485 37.6088 185.487 37.651 185.297 40.3986Z" fill="#E1E4E5"/>
</g>
<defs>
<linearGradient id="paint0_linear_23_327" x1="125.65" y1="160.351" x2="66.4658" y2="101.907" gradientUnits="userSpaceOnUse">
<stop stop-color="white"/>
<stop offset="1" stop-color="#EEEEEE"/>
</linearGradient>
<linearGradient id="paint1_linear_23_327" x1="79.7869" y1="111.002" x2="79.2662" y2="66.3637" gradientUnits="userSpaceOnUse">
<stop stop-color="white"/>
<stop offset="1" stop-color="#EEEEEE"/>
</linearGradient>
<linearGradient id="paint2_linear_23_327" x1="125.725" y1="152.957" x2="111.27" y2="159.773" gradientUnits="userSpaceOnUse">
<stop stop-color="white"/>
<stop offset="1" stop-color="#EEEEEE"/>
</linearGradient>
<linearGradient id="paint3_linear_23_327" x1="123.071" y1="64.2119" x2="134.607" y2="76.3532" gradientUnits="userSpaceOnUse">
<stop stop-color="white"/>
<stop offset="1" stop-color="#EEEEEE"/>
</linearGradient>
<linearGradient id="paint4_linear_23_327" x1="185.467" y1="92.6732" x2="201.479" y2="117.727" gradientUnits="userSpaceOnUse">
<stop stop-color="white"/>
<stop offset="1" stop-color="#EEEEEE"/>
</linearGradient>
<clipPath id="clip0_23_327">
<rect width="271" height="181" fill="white"/>
</clipPath>
</defs>
</svg>
