<svg width="360" height="228" viewBox="0 0 360 228" fill="none" xmlns="http://www.w3.org/2000/svg">
<path d="M235.988 43.9434H156.897C152.485 43.9434 148.909 47.3344 148.909 51.5173V70.9376C148.909 75.1206 152.485 78.5115 156.897 78.5115H235.988C240.399 78.5115 243.976 75.1206 243.976 70.9376V51.5173C243.976 47.3344 240.399 43.9434 235.988 43.9434Z" fill="white" stroke="#E1E4E5" stroke-width="4"/>
<path d="M232.124 54.7031H182.952C181.758 54.7031 180.79 55.6207 180.79 56.7526C180.79 57.8845 181.758 58.8021 182.952 58.8021H232.124C233.318 58.8021 234.285 57.8845 234.285 56.7526C234.285 55.6207 233.318 54.7031 232.124 54.7031Z" fill="#E1E4E5"/>
<path d="M213.212 63.4131H182.952C181.758 63.4131 180.79 64.3307 180.79 65.4626C180.79 66.5945 181.758 67.5121 182.952 67.5121H213.212C214.405 67.5121 215.373 66.5945 215.373 65.4626C215.373 64.3307 214.405 63.4131 213.212 63.4131Z" fill="#E1E4E5"/>
<path fill-rule="evenodd" clip-rule="evenodd" d="M163.975 69.9418C158.936 69.9418 154.851 66.0132 154.851 61.1682C154.851 56.3228 158.936 52.3942 163.975 52.3942C169.014 52.3942 173.1 56.3228 173.1 61.1682C173.1 66.0132 169.014 69.9418 163.975 69.9418Z" fill="#3F573F"/>
<path d="M167.188 59.706L163.334 63.6054L161.02 61.2662" stroke="white" stroke-width="3.568" stroke-linecap="round" stroke-linejoin="round"/>
<path d="M247.042 95.9127H167.951C163.539 95.9127 159.963 99.3037 159.963 103.487V122.907C159.963 127.09 163.539 130.481 167.951 130.481H247.042C251.453 130.481 255.03 127.09 255.03 122.907V103.487C255.03 99.3037 251.453 95.9127 247.042 95.9127Z" fill="white" stroke="#E1E4E5" stroke-width="4"/>
<path d="M243.178 106.672H194.006C192.812 106.672 191.844 107.59 191.844 108.722C191.844 109.854 192.812 110.771 194.006 110.771H243.178C244.372 110.771 245.34 109.854 245.34 108.722C245.34 107.59 244.372 106.672 243.178 106.672Z" fill="#E1E4E5"/>
<path d="M224.266 115.382H194.006C192.812 115.382 191.844 116.3 191.844 117.432C191.844 118.564 192.812 119.481 194.006 119.481H224.266C225.459 119.481 226.427 118.564 226.427 117.432C226.427 116.3 225.459 115.382 224.266 115.382Z" fill="#E1E4E5"/>
<path fill-rule="evenodd" clip-rule="evenodd" d="M175.029 121.911C169.99 121.911 165.905 117.982 165.905 113.137C165.905 108.292 169.99 104.363 175.029 104.363C180.068 104.363 184.154 108.292 184.154 113.137C184.154 117.982 180.068 121.911 175.029 121.911Z" fill="#232923"/>
<path d="M178.242 111.675L174.388 115.575L172.074 113.236" stroke="white" stroke-width="3.568" stroke-linecap="round" stroke-linejoin="round"/>
<path d="M235.988 147.882H156.897C152.485 147.882 148.909 151.273 148.909 155.456V174.876C148.909 179.059 152.485 182.45 156.897 182.45H235.988C240.399 182.45 243.976 179.059 243.976 174.876V155.456C243.976 151.273 240.399 147.882 235.988 147.882Z" fill="white" stroke="#E1E4E5" stroke-width="4"/>
<path d="M232.124 158.641H182.952C181.758 158.641 180.79 159.559 180.79 160.691C180.79 161.823 181.758 162.74 182.952 162.74H232.124C233.318 162.74 234.285 161.823 234.285 160.691C234.285 159.559 233.318 158.641 232.124 158.641Z" fill="#E1E4E5"/>
<path d="M213.212 167.352H182.952C181.758 167.352 180.79 168.269 180.79 169.401C180.79 170.533 181.758 171.451 182.952 171.451H213.212C214.405 171.451 215.373 170.533 215.373 169.401C215.373 168.269 214.405 167.352 213.212 167.352Z" fill="#E1E4E5"/>
<path fill-rule="evenodd" clip-rule="evenodd" d="M163.975 173.88C158.936 173.88 154.851 169.952 154.851 165.107C154.851 160.261 158.936 156.333 163.975 156.333C169.014 156.333 173.1 160.261 173.1 165.107C173.1 169.952 169.014 173.88 163.975 173.88Z" fill="#3F573F"/>
<path d="M167.188 163.645L163.334 167.544L161.02 165.205" stroke="white" stroke-width="3.568" stroke-linecap="round" stroke-linejoin="round"/>
<path d="M102.04 76.4579C101.807 77.3395 102.116 78.2563 102.625 79.0262C102.984 79.57 103.487 78.9694 104.22 78.8732C105.354 78.7225 106.071 77.5845 106.317 74.8125C106.43 72.7876 106.377 71.7772 106.258 71.6004C105.834 70.9676 104.745 70.7559 103.886 70.8169" fill="#232923"/>
<path fill-rule="evenodd" clip-rule="evenodd" d="M104.098 196.953C104.098 196.953 104.029 201.116 106.739 202.595C109.449 204.074 113.648 206.822 113.648 206.822L97.6755 207.333L98.1308 196.916L104.098 196.953V196.953Z" fill="#F8AE9D"/>
<path fill-rule="evenodd" clip-rule="evenodd" d="M97.1182 201.541L96.8582 208.295H100.568L100.823 207.425C100.823 207.425 102.219 207.371 103.026 207.746C103.88 208.144 103.994 208.337 103.994 208.337L115.762 208.36C115.762 208.36 116.342 206.177 112.755 204.598C109.168 203.019 106.556 200.778 106.06 200.548C105.561 200.317 104.552 200.187 103.842 200.73C103.132 201.272 102.57 202.7 100.962 202.744C98.8907 202.802 97.7013 200.399 97.1182 201.541V201.541ZM92.5312 129.006C92.5312 129.006 96.8906 164.08 97.0264 166.518C97.1618 168.956 95.6261 173.164 95.656 177.725C95.686 182.286 96.2168 198.359 96.2168 198.359L105.833 198.508C105.833 198.508 109.875 169.461 109.919 165.106C109.962 160.75 110.333 129.425 110.333 129.425L92.5312 129.006V129.006Z" fill="#232923"/>
<path fill-rule="evenodd" clip-rule="evenodd" d="M80.7699 196.221L78.8959 207.013L85.8046 206.98L86.0231 196.052L80.7699 196.221Z" fill="#F8AE9D"/>
<path fill-rule="evenodd" clip-rule="evenodd" d="M79.7891 200.938C79.5284 200.992 79.2941 201.126 79.1233 201.321C78.9525 201.515 78.8549 201.758 78.8462 202.011L78.7823 203.848C77.797 204.887 77.3357 207.903 77.2933 208.193C77.2907 208.209 77.2899 208.225 77.2909 208.241C77.4052 209.713 87.5853 209.689 88.4424 208.295C88.4735 208.244 88.4755 208.185 88.4656 208.127C88.3701 207.571 87.8086 204.564 86.715 203.751L86.7078 201.933C86.7069 201.684 86.6196 201.442 86.4594 201.244C86.2992 201.047 86.0749 200.905 85.8212 200.84L84.5519 200.516C83.5422 199.116 82.1655 199.166 80.9861 200.691L79.7891 200.938V200.938ZM84.1621 129.336C84.1621 129.336 81.0832 153.266 81.1251 157.849C81.1667 162.432 82.0725 164.444 80.7836 167.732C79.4944 171.019 78.3949 197.258 78.3949 197.258L87.9276 198.011C87.9276 198.011 94.0171 169.934 94.6793 166.041C95.3419 162.148 103.526 129.006 103.526 129.006L84.1621 129.336V129.336Z" fill="#232923"/>
<path fill-rule="evenodd" clip-rule="evenodd" d="M131.695 86.3109C131.695 86.3109 130.899 82.1055 131.185 81.2538C131.43 80.5176 133.74 79.4565 133.74 79.4565C133.74 79.4565 137.759 73.4375 138.638 74.0503C139.353 74.5471 136.545 78.9847 136.545 78.9847C136.545 78.9847 139.106 81.5318 139.07 82.6705C139.034 83.8093 134.891 87.3739 134.891 87.3739L131.695 86.3109V86.3109ZM90.3947 87.2989C90.3947 87.2989 93.041 86.7101 93.1329 82.5982C93.2248 78.4867 93.16 77.0832 93.16 77.0832L99.4345 76.9833C99.4345 76.9833 99.4976 81.5659 99.4988 83.223C99.5012 86.8316 102.328 87.8064 102.328 87.8064C102.328 87.8064 102.092 91.752 96.8105 92.0338C92.6864 92.2538 90.3947 87.2989 90.3947 87.2989V87.2989Z" fill="#F8AE9D"/>
<path fill-rule="evenodd" clip-rule="evenodd" d="M92.584 75.0046C89.9831 74.9092 90.4073 78.5189 93.1088 78.514C93.1088 78.514 96.012 84.049 100.57 84.0634C102.766 84.0706 103.483 82.2161 104.141 80.9141C104.799 79.6126 105.282 77.6653 105.322 76.4732C105.365 75.2019 105.371 71.0256 105.371 71.0256L92.4825 71.0203L92.584 75.0046Z" fill="#F8AE9D"/>
<path fill-rule="evenodd" clip-rule="evenodd" d="M102.426 87.5617C102.426 87.5617 109.185 89.5624 110.815 91.952C116.061 96.3229 122.624 102.325 122.624 102.325C122.624 102.325 128.874 87.4515 130.918 85.7557C132.315 84.5954 135.101 86.0303 135.62 87.5046C136.287 89.3984 132.006 100.507 129.984 105.753C129.592 106.769 129.286 107.566 129.116 108.033C127.883 111.424 124.884 113.369 121.233 111.213C119.762 110.344 115.383 107.497 111.647 104.916C111.589 107.628 111.49 110.485 111.397 113.199V113.199C111.17 119.792 110.972 125.537 111.448 126.283C113.804 129.984 110.671 132.524 100.299 133.457C89.9267 134.391 80.7247 133.626 82.3945 128.688C82.7424 127.659 82.738 125.444 82.5647 122.567C81.5485 122.516 80.533 122.452 79.5185 122.377C75.1899 122.053 71.9883 120.29 71.5418 115.709C71.2291 112.502 77.6737 97.4438 80.0904 92.4927C80.6556 91.3343 81.5294 90.6129 82.5199 90.2535C82.7504 90.0096 83.01 89.8381 83.3015 89.7468C85.0768 89.192 91.4416 86.6567 91.4416 86.6567L99.0129 91.3536L102.426 87.5617V87.5617ZM81.8633 114.068L81.8461 114.11L81.8673 114.112L81.8633 114.068Z" fill="#3F573F"/>
<path fill-rule="evenodd" clip-rule="evenodd" d="M98.6629 118.042C98.6629 118.042 100.972 117.602 101.918 116.898C102.862 116.195 105.725 115.698 105.725 115.698L104.809 117.526C104.809 117.526 111.824 116.901 111.99 117.558C112.156 118.214 110.127 118.927 110.127 118.927C110.127 118.927 109.127 120.699 108.158 121.726C107.241 122.699 102.688 122.583 101.092 121.976C99.7129 121.452 98.2132 121.714 98.2132 121.714L98.6629 118.042V118.042Z" fill="#F8AE9D"/>
<path d="M93.2915 71.1903C93.6713 71.6622 94.3411 71.7659 94.893 71.8591C95.6351 71.9844 96.0021 72.2457 96.3872 72.9463C96.6312 73.3939 96.8748 73.8843 97.3114 74.1267C97.6668 74.3251 97.656 73.8234 97.7088 73.4352C97.7135 73.3989 97.721 73.363 97.7311 73.3277C97.8158 73.0175 98.1629 73.0694 98.2639 73.3754C98.3562 73.6526 98.5539 73.887 98.8055 74.0176C98.8466 74.0388 98.8902 74.0574 98.9337 74.0494C98.9928 74.0415 99.0391 73.9881 99.0775 73.9404C99.1578 73.8404 99.2372 73.7139 99.3195 73.5802C99.5911 73.1372 100.109 73.2928 100.412 73.7166C100.602 73.9801 100.828 74.252 101.139 74.3134C101.239 74.3346 101.365 74.3187 101.411 74.2255C101.47 74.1108 101.378 73.9961 101.393 73.879C101.406 73.7696 101.455 73.7219 101.509 73.6283C101.719 73.269 102.206 73.2557 102.503 73.5552C102.71 73.7638 102.925 73.9643 103.149 74.1562C103.244 74.2361 103.383 74.3161 103.478 74.2361C103.529 74.1934 103.541 74.1214 103.552 74.0521C103.606 73.7139 103.657 73.3754 103.711 73.0368C103.742 72.8478 103.847 72.5998 104.027 72.6479C104.114 72.6718 104.165 72.76 104.214 72.8399C104.273 72.941 105.328 74.0949 105.349 74.007C105.513 73.3515 105.85 72.7547 106.014 72.0992C107.077 67.8809 102.361 64.4889 98.7592 64.4703C97.9584 64.465 97.2267 64.4775 96.4487 64.6559C95.6195 64.8479 94.7445 65.1524 93.992 65.5814C92.9372 66.1809 92.1388 67.2708 92.3441 68.5712" fill="#232923"/>
<path d="M96.22 69.827C96.728 70.3776 96.8622 71.1525 96.9098 71.8845C96.9793 72.9884 96.8846 74.1354 96.3518 75.1155C96.2 75.3942 96.0882 76.775 95.8542 76.6985C95.7795 76.6746 95.7919 75.604 95.595 75.0273C95.2914 74.1332 93.8923 73.792 93.2625 74.357C92.2564 75.256 92.8467 76.3482 93.1802 77.0275C93.3795 77.4377 93.6954 77.8978 93.7502 78.3318C93.8177 78.8873 93.8376 80.9115 93.459 81.3837C93.1431 81.7794 92.8068 79.8674 92.5204 79.4906C90.402 76.6841 88.3703 69.5385 91.9876 67.9885C92.538 67.7525 94.2358 67.631 94.751 67.9313" fill="#232923"/>
<path d="M130.463 52.9499C126.296 53.7331 121.55 49.5712 121.55 49.5712C121.55 49.5712 123.562 44.1418 127.731 43.3621C131.898 42.579 136.642 46.7378 136.642 46.7378C136.642 46.7378 134.63 52.1672 130.463 52.9499Z" fill="url(#paint0_linear_38_232)"/>
<path d="M279 177.808C283.98 181.06 291.588 178.787 291.588 178.787C291.588 178.787 291.116 171.241 286.133 167.991C281.154 164.739 273.549 167.009 273.549 167.009C273.549 167.009 274.02 174.555 279 177.808Z" fill="url(#paint1_linear_38_232)"/>
<path d="M283.724 82.7027C278.546 87.6999 268.863 86.6464 268.863 86.6464C268.863 86.6464 267.582 77.4907 272.765 72.4964C277.943 67.4992 287.621 68.5497 287.621 68.5497C287.621 68.5497 288.903 77.7054 283.724 82.7027V82.7027Z" fill="url(#paint2_linear_38_232)"/>
<path d="M127.722 181.509C125.941 181.509 124.498 182.878 124.498 184.566C124.498 186.255 125.941 187.623 127.722 187.623C129.502 187.623 130.946 186.255 130.946 184.566C130.946 182.878 129.502 181.509 127.722 181.509Z" fill="#3F573F"/>
<path d="M51.9211 130.095C50.5976 130.095 49.5247 129.077 49.5247 127.822C49.5247 126.567 50.5976 125.55 51.9211 125.55C53.2446 125.55 54.3174 126.567 54.3174 127.822C54.3174 129.077 53.2446 130.095 51.9211 130.095Z" fill="#3F573F"/>
<path d="M147.764 93.3047C146.361 93.3047 145.224 92.2265 145.224 90.8965C145.224 89.5666 146.361 88.4884 147.764 88.4884C149.167 88.4884 150.304 89.5666 150.304 90.8965C150.304 92.2265 149.167 93.3047 147.764 93.3047Z" fill="#3F573F"/>
<path d="M234.199 200.286C232.119 200.286 230.432 198.82 230.432 197.012C230.432 195.203 232.119 193.737 234.199 193.737C236.28 193.737 237.966 195.203 237.966 197.012C237.966 198.82 236.28 200.286 234.199 200.286Z" fill="#E1E4E5"/>
<path d="M66.499 167.585C65.2858 167.585 64.3023 166.653 64.3023 165.503C64.3023 164.352 65.2858 163.42 66.499 163.42C67.7121 163.42 68.6956 164.352 68.6956 165.503C68.6956 166.653 67.7121 167.585 66.499 167.585Z" fill="#E1E4E5"/>
<path d="M58.8693 87.187C57.2134 87.187 55.8711 85.9142 55.8711 84.3442C55.8711 82.7741 57.2134 81.5013 58.8693 81.5013C60.5252 81.5013 61.8676 82.7741 61.8676 84.3442C61.8676 85.9142 60.5252 87.187 58.8693 87.187Z" fill="#E1E4E5"/>
<path d="M204.608 24.4381C202.925 24.4381 201.561 23.0366 201.561 21.3078C201.561 19.579 202.925 18.1775 204.608 18.1775C206.291 18.1775 207.655 19.579 207.655 21.3078C207.655 23.0366 206.291 24.4381 204.608 24.4381Z" fill="#E1E4E5"/>
<path d="M140.115 125.513C140.714 127.63 139.389 129.806 137.156 130.373C134.923 130.941 132.628 129.684 132.029 127.567C131.431 125.45 132.756 123.274 134.989 122.706C137.222 122.139 139.517 123.395 140.115 125.513Z" fill="#E1E4E5"/>
<path d="M75.5943 48.037C73.3501 48.037 71.5309 46.312 71.5309 44.1842C71.5309 42.0563 73.3501 40.3313 75.5943 40.3313C77.8385 40.3313 79.6577 42.0563 79.6577 44.1842C79.6577 46.312 77.8385 48.037 75.5943 48.037Z" fill="#E1E4E5"/>
<path d="M305.645 151.323C303.28 151.323 301.362 149.869 301.362 148.074C301.362 146.28 303.28 144.825 305.645 144.825C308.011 144.825 309.929 146.28 309.929 148.074C309.929 149.869 308.011 151.323 305.645 151.323Z" fill="#E1E4E5"/>
<path d="M283.599 125.29C284.844 129.697 282.087 134.226 277.439 135.406C272.792 136.587 268.016 133.972 266.77 129.566C265.525 125.16 268.283 120.631 272.93 119.45C277.577 118.269 282.354 120.884 283.599 125.29Z" fill="#E1E4E5"/>
<path d="M254.862 33.0262H254.943C255.424 39.6325 260.491 39.7344 260.491 39.7344C260.491 39.7344 254.904 39.84 254.904 47.4742C254.904 39.84 249.316 39.7344 249.316 39.7344C249.316 39.7344 254.381 39.6325 254.862 33.0258V33.0262ZM150.47 18.1775H150.555C151.058 25.0046 156.355 25.1095 156.355 25.1095C156.355 25.1095 150.514 25.219 150.514 33.1076C150.514 25.219 144.673 25.1095 144.673 25.1095C144.673 25.1095 149.967 25.0046 150.47 18.1775V18.1775Z" fill="#E1E4E5"/>
<defs>
<linearGradient id="paint0_linear_38_232" x1="114.678" y1="54.5223" x2="149.929" y2="37.1091" gradientUnits="userSpaceOnUse">
<stop stop-color="white"/>
<stop offset="1" stop-color="#EEEEEE"/>
</linearGradient>
<linearGradient id="paint1_linear_38_232" x1="298.399" y1="188.479" x2="261.386" y2="147.318" gradientUnits="userSpaceOnUse">
<stop stop-color="white"/>
<stop offset="1" stop-color="#EEEEEE"/>
</linearGradient>
<linearGradient id="paint2_linear_38_232" x1="263.064" y1="99.772" x2="297.733" y2="42.4565" gradientUnits="userSpaceOnUse">
<stop stop-color="white"/>
<stop offset="1" stop-color="#EEEEEE"/>
</linearGradient>
</defs>
</svg>
